<svg xmlns="http://www.w3.org/2000/svg" viewBox="0 0 512 512">
  <!-- Background: solid burgundy, matches site's --color-burgundy -->
  <rect width="512" height="512" fill="#5C1A2E"/>

  <!-- Subtle radial highlight for depth -->
  <defs>
    <radialGradient id="glow" cx="50%" cy="38%" r="65%">
      <stop offset="0%" stop-color="#7A2740"/>
      <stop offset="100%" stop-color="#5C1A2E"/>
    </radialGradient>
  </defs>
  <rect width="512" height="512" fill="url(#glow)"/>

  <!-- Rudi, scaled up and centered (same proportions as the in-app SVG) -->
  <g transform="translate(96,120) scale(2.6)">
    <!-- tail -->
    <path d="M8 62 Q2 58 4 50 Q10 54 16 58 Z" fill="#241417"/>
    <!-- body -->
    <ellipse cx="46" cy="60" rx="30" ry="26" fill="#2E2A30"/>
    <!-- backpack -->
    <rect x="16" y="46" width="16" height="26" rx="7" fill="#2563A8"/>
    <rect x="19" y="40" width="10" height="12" rx="4" fill="#8B5E3C"/>
    <path d="M26 50 Q34 54 34 64 Q34 72 27 76" stroke="#D4922E" stroke-width="3" fill="none" stroke-linecap="round"/>
    <rect x="30" y="58" width="6" height="6" rx="1.5" fill="#D4922E"/>
    <!-- head -->
    <circle cx="52" cy="34" r="22" fill="#2E2A30"/>
    <path d="M46 14 Q49 8 53 13 Q56 9 58 15" stroke="#2E2A30" stroke-width="4" fill="none" stroke-linecap="round"/>
    <!-- eyes -->
    <circle cx="45" cy="33" r="9" fill="white"/>
    <circle cx="45" cy="34" r="6.4" fill="#8A5A2B"/>
    <circle cx="45" cy="34" r="3.6" fill="#1A1210"/>
    <circle cx="47" cy="31.5" r="1.6" fill="white"/>
    <circle cx="62" cy="33" r="9.5" fill="white"/>
    <circle cx="62" cy="34" r="6.8" fill="#8A5A2B"/>
    <circle cx="62" cy="34" r="3.9" fill="#1A1210"/>
    <circle cx="64.2" cy="31" r="1.7" fill="white"/>
    <!-- beak -->
    <path d="M53 40 Q54 47 61 48 Q56 51 51 49 Q49 44 53 40 Z" fill="#F0A030"/>
    <path d="M53.5 41.5 Q57 44.5 59.5 46" stroke="#C9401E" stroke-width="1.5" fill="none" stroke-linecap="round"/>
    <!-- wing holding key -->
    <path d="M74 52 Q86 48 90 38" stroke="#2E2A30" stroke-width="9" fill="none" stroke-linecap="round"/>
    <g transform="translate(88,26) rotate(35)">
      <circle cx="0" cy="0" r="7" fill="none" stroke="#D4A24C" stroke-width="3.5"/>
      <rect x="-2" y="6" width="4" height="14" fill="#D4A24C"/>
      <rect x="-2" y="16" width="7" height="3.5" fill="#D4A24C"/>
      <rect x="-2" y="20" width="5" height="3.5" fill="#D4A24C"/>
    </g>
    <!-- feet -->
    <path d="M40 84 L38 92 M40 84 L42 92 M40 84 L44 90" stroke="#F0A030" stroke-width="3" stroke-linecap="round"/>
    <path d="M56 84 L54 92 M56 84 L58 92 M56 84 L60 90" stroke="#F0A030" stroke-width="3" stroke-linecap="round"/>
  </g>
</svg>
